# xmcd CD database file
#
# Track frame offsets:
#	150
#	18242
#	36789
#	57023
#	75523
#	97242
#	123590
#	141943
#	163781
#	179869
#	203359
#	226606
#	252944
#	274667
#
# Disc length: 3982 seconds
#
# Revision: 3
# Processed by: cddbd v1.5PL3 Copyright (c) Steve Scherf et al.
# Submitted via: CDex 1.51
#
DISCID=b90f8c0e
DTITLE=Diana Krall - The Girl In The Other Room
DYEAR=2004
DGENRE=Jazz
TTITLE0=Diana Krall - Stop This World
TTITLE1=Diana Krall - The Girl in the Other Room
TTITLE2=Diana Krall - Temptation
TTITLE3=Diana Krall - Almost Blue
TTITLE4=Diana Krall - I've Changed My Address
TTITLE5=Diana Krall - Love Me Like a Man
TTITLE6=Diana Krall - I'm Pulling Through
TTITLE7=Diana Krall - Black Crow
TTITLE8=Diana Krall - Narrow Daylight
TTITLE9=Diana Krall - Abandoned Masquerade
TTITLE10=Diana Krall - I'm Coming Through
TTITLE11=Diana Krall - Departure Bay
TTITLE12=Diana Krall - I'll Never Be The Same (Bonus Track)
TTITLE13=Diana Krall - Sometimes I Just Freak Out (Bonus Track)
EXTD=YEAR: 2004
EXTT0=
EXTT1=
EXTT2=
EXTT3=
EXTT4=
EXTT5=
EXTT6=
EXTT7=
EXTT8=
EXTT9=
EXTT10=
EXTT11=
EXTT12=
EXTT13=
PLAYORDER=
